# Generado para prueba_espejo.w3d (reflejo en agua). Caras v/vt/vn: el
# importador de Whisk3D descarta las UV si falta la normal. El COLOR va
# por vertice (v x y z r g b a) y el .mtl aporta NoLight/d: asi el pixel
# sale exacto y el test compara colores absolutos.
o espejo-orilla
v -30.0000 10.0000 30.0000 0.0 0.7 0.0 1.0
v 30.0000 10.0000 30.0000 0.0 0.7 0.0 1.0
v 30.0000 10.0000 6.0000 0.0 0.7 0.0 1.0
v -30.0000 10.0000 6.0000 0.0 0.7 0.0 1.0
v -30.0000 10.0000 -6.0000 0.0 0.7 0.0 1.0
v 30.0000 10.0000 -6.0000 0.0 0.7 0.0 1.0
v 30.0000 10.0000 -30.0000 0.0 0.7 0.0 1.0
v -30.0000 10.0000 -30.0000 0.0 0.7 0.0 1.0
v -30.0000 10.0000 6.0000 0.0 0.7 0.0 1.0
v -6.0000 10.0000 6.0000 0.0 0.7 0.0 1.0
v -6.0000 10.0000 -6.0000 0.0 0.7 0.0 1.0
v -30.0000 10.0000 -6.0000 0.0 0.7 0.0 1.0
v 6.0000 10.0000 6.0000 0.0 0.7 0.0 1.0
v 30.0000 10.0000 6.0000 0.0 0.7 0.0 1.0
v 30.0000 10.0000 -6.0000 0.0 0.7 0.0 1.0
v 6.0000 10.0000 -6.0000 0.0 0.7 0.0 1.0
vt 0.0 0.0
vt 1.0 0.0
vt 1.0 1.0
vt 0.0 1.0
vn 0.0 1.0 0.0
usemtl OrillaVerde
f 1/1/1 2/2/1 3/3/1
f 1/1/1 3/3/1 4/4/1
f 5/1/1 6/2/1 7/3/1
f 5/1/1 7/3/1 8/4/1
f 9/1/1 10/2/1 11/3/1
f 9/1/1 11/3/1 12/4/1
f 13/1/1 14/2/1 15/3/1
f 13/1/1 15/3/1 16/4/1
